<?xml version="1.0" encoding="utf-8"?>
<!-- Generator: Adobe Illustrator 21.1.0, SVG Export Plug-In . SVG Version: 6.00 Build 0)  -->
<svg version="1.1" id="Layer_1" xmlns="http://www.w3.org/2000/svg" xmlns:xlink="http://www.w3.org/1999/xlink" x="0px" y="0px"
	 viewBox="0 0 31.6 24.5" style="enable-background:new 0 0 31.6 24.5;" xml:space="preserve">
<style type="text/css">
	.st0{fill:#FFFFFF;}
	.st1{fill:none;stroke:#FFFFFF;stroke-width:2.4897;stroke-linecap:round;stroke-miterlimit:10;}
</style>
<g>
	<g>
		<path class="st0" d="M21.9,0.6C21.7,0.2,21.4,0,21,0H1C0.6,0,0.3,0.2,0.1,0.6C-0.1,1,0,1.4,0.3,1.7L8,9.4V17
			c0,0.3,0.1,0.5,0.3,0.7l4,4c0.2,0.2,0.4,0.3,0.7,0.3c0.1,0,0.3,0,0.4-0.1c0.4-0.2,0.6-0.5,0.6-0.9V9.4l7.7-7.7
			C22,1.4,22.1,1,21.9,0.6L21.9,0.6z M21.9,0.6"/>
	</g>
</g>
<polyline class="st1" points="21,20.1 23.6,22.7 29,17.3 "/>
</svg>
